<svg width="506" height="128" viewBox="0 0 506 128" fill="none" xmlns="http://www.w3.org/2000/svg">
<g clip-path="url(#clip0_264_641)">
<path fill-rule="evenodd" clip-rule="evenodd" d="M42.4203 123.99C17.6982 115.188 -3.05176e-05 91.5784 -3.05176e-05 63.835C-3.05176e-05 61.673 0.107437 59.5364 0.31737 57.4294C6.33167 54.3027 12.2443 50.584 15.12 47.7467C15.7884 47.1874 16.2851 46.7674 16.6746 46.4384C17.3498 45.868 17.7025 45.57 18.0683 45.2887C18.4683 44.9814 18.884 44.694 19.754 44.0927C20.139 43.8267 20.6126 43.4994 21.2133 43.0814C21.3443 42.9904 21.251 42.5714 21.1076 41.9294C20.931 41.1367 20.6786 40.0037 20.6786 38.7287C20.669 38.2364 21.0776 37.1837 21.47 36.173C21.8056 35.309 22.1293 34.4754 22.1696 34.0487C22.2886 32.7867 22.7326 31.8924 23.1433 31.783C23.554 31.6737 26.1253 31.783 28.8336 33.075C30.8783 34.0504 32.292 36.2897 33.1443 37.6394C33.5676 38.31 33.8523 38.761 34.007 38.7287C34.214 38.685 34.3766 38.646 34.5253 38.6104C34.8243 38.5387 35.0666 38.4807 35.4986 38.4257C35.6486 38.4067 35.7983 37.885 35.3633 36.6154C35.14 35.9634 35.371 35.3747 35.66 34.6377C35.782 34.3267 35.9143 33.989 36.027 33.6094C36.1073 33.339 36.1473 33.0797 36.1836 32.8444C36.2626 32.3307 36.324 31.931 36.7506 31.783C37.2226 31.619 40.3936 31.783 42.3243 33.3047C43.7176 34.403 44.3283 36.0237 44.725 37.0767C44.878 37.4824 44.999 37.8037 45.121 37.9787C45.6566 37.9687 47.2563 37.9734 48.3943 37.9764H48.3946C48.8223 37.9777 49.185 37.9787 49.401 37.9787C62.9063 37.9787 83.933 39.1747 96.9063 47.7467C107.007 54.4204 106.707 58.629 106.174 66.0974C106.098 67.1604 106.018 68.2897 105.962 69.501C105.754 74.0177 105.327 79.0827 104.35 82.0107C103.653 84.0994 102.557 84.5697 101.465 85.0387C100.765 85.3394 100.066 85.639 99.4743 86.364C98.8466 87.133 98.7926 88.0777 98.7426 88.9537C98.6833 89.994 98.6296 90.9374 97.6263 91.3734C89.5293 94.8917 75.765 96.7744 66.2393 98.077C61.6556 98.7037 58.054 99.1964 56.537 99.6724C54.9956 100.156 54.1483 102.298 52.8333 105.623C51.0893 110.033 48.5223 116.524 42.4203 123.99ZM102.22 60.6444C102.185 63.1307 100.893 63.8174 99.3116 63.795C97.7303 63.773 96.4583 63.0507 96.4933 60.5643C96.528 58.0777 97.8383 56.08 99.4196 56.1024C101.001 56.1244 102.255 58.158 102.22 60.6444ZM50.8226 55.0317C52.9876 54.9237 54.598 54.8434 54.717 53.1057C54.8973 50.469 52.0883 48.8334 47.7043 49.0624C43.32 49.2917 39.3043 52.7887 40.3776 55.1014C41.2406 56.9604 43.749 56.318 46.1146 55.7127C46.4646 55.623 46.8113 55.5344 47.1493 55.4544C48.4356 55.1507 49.7033 55.0877 50.8226 55.0317Z" fill="white"/>
<path d="M63.8353 124.337C97.2496 124.337 124.337 97.2497 124.337 63.8354C124.337 30.421 97.2496 3.33337 63.8353 3.33337C30.421 3.33337 3.33331 30.421 3.33331 63.8354C3.33331 97.2497 30.421 124.337 63.8353 124.337Z" stroke="white" stroke-width="6.66667"/>
<path d="M156 104.987L177.791 35.8667H194.735L216.526 104.987H204.622L184.847 42.9707H187.439L167.904 104.987H156ZM168.144 90.0107V79.2107H204.43V90.0107H168.144ZM250.115 106.427C245.059 106.427 240.819 105.227 237.395 102.827C233.971 100.427 231.395 97.1627 229.668 93.0347C227.94 88.8747 227.076 84.2187 227.076 79.0667C227.076 73.8507 227.94 69.1787 229.668 65.0507C231.395 60.9227 233.923 57.6747 237.251 55.3067C240.611 52.9067 244.755 51.7067 249.683 51.7067C254.579 51.7067 258.818 52.9067 262.402 55.3067C266.018 57.6747 268.818 60.9227 270.802 65.0507C272.786 69.1467 273.778 73.8187 273.778 79.0667C273.778 84.2507 272.802 88.9067 270.85 93.0347C268.898 97.1627 266.146 100.427 262.594 102.827C259.042 105.227 254.883 106.427 250.115 106.427ZM225.108 128.027V53.1467H235.331V89.5307H236.771V128.027H225.108ZM248.339 96.0587C251.347 96.0587 253.827 95.3067 255.779 93.8027C257.73 92.2987 259.17 90.2667 260.098 87.7067C261.058 85.1147 261.538 82.2347 261.538 79.0667C261.538 75.9307 261.058 73.0827 260.098 70.5227C259.138 67.9307 257.65 65.8827 255.635 64.3787C253.619 62.8427 251.059 62.0747 247.955 62.0747C245.011 62.0747 242.611 62.7947 240.755 64.2347C238.899 65.6427 237.523 67.6267 236.627 70.1867C235.763 72.7147 235.331 75.6747 235.331 79.0667C235.331 82.4267 235.763 85.3867 236.627 87.9467C237.523 90.5067 238.915 92.5067 240.803 93.9467C242.723 95.3547 245.235 96.0587 248.339 96.0587ZM285.318 45.2747V34.6667H296.885V45.2747H285.318ZM285.318 104.987V53.1467H296.885V104.987H285.318ZM336.173 106.427C331.117 106.427 326.878 105.227 323.454 102.827C320.03 100.427 317.455 97.1627 315.727 93.0347C313.999 88.8747 313.135 84.2187 313.135 79.0667C313.135 73.8507 313.999 69.1787 315.727 65.0507C317.455 60.9227 319.982 57.6747 323.31 55.3067C326.67 52.9067 330.813 51.7067 335.743 51.7067C340.636 51.7067 344.876 52.9067 348.463 55.3067C352.076 57.6747 354.876 60.9227 356.862 65.0507C358.846 69.1467 359.836 73.8187 359.836 79.0667C359.836 84.2507 358.862 88.9067 356.909 93.0347C354.956 97.1627 352.206 100.427 348.653 102.827C345.103 105.227 340.943 106.427 336.173 106.427ZM311.167 104.987V35.8667H322.83V68.6027H321.39V104.987H311.167ZM334.397 96.0587C337.406 96.0587 339.886 95.3067 341.836 93.8027C343.79 92.2987 345.229 90.2667 346.156 87.7067C347.116 85.1147 347.596 82.2347 347.596 79.0667C347.596 75.9307 347.116 73.0827 346.156 70.5227C345.196 67.9307 343.709 65.8827 341.693 64.3787C339.676 62.8427 337.116 62.0747 334.013 62.0747C331.07 62.0747 328.67 62.7947 326.814 64.2347C324.958 65.6427 323.582 67.6267 322.686 70.1867C321.822 72.7147 321.39 75.6747 321.39 79.0667C321.39 82.4267 321.822 85.3867 322.686 87.9467C323.582 90.5067 324.974 92.5067 326.862 93.9467C328.783 95.3547 331.293 96.0587 334.397 96.0587ZM384.911 106.427C381.168 106.427 378.002 105.723 375.408 104.315C372.818 102.875 370.848 100.971 369.505 98.6027C368.192 96.2347 367.539 93.6267 367.539 90.7787C367.539 88.2827 367.952 86.0427 368.785 84.0587C369.619 82.0427 370.898 80.3147 372.625 78.8747C374.352 77.4027 376.592 76.2027 379.345 75.2747C381.425 74.6027 383.858 73.9947 386.641 73.4507C389.458 72.9067 392.498 72.4107 395.761 71.9627C399.057 71.4827 402.497 70.9707 406.08 70.4267L401.951 72.7787C401.984 69.1947 401.184 66.5547 399.551 64.8587C397.921 63.1627 395.168 62.3147 391.298 62.3147C388.961 62.3147 386.705 62.8587 384.528 63.9467C382.351 65.0347 380.831 66.9067 379.968 69.5627L369.409 66.2507C370.688 61.8667 373.122 58.3467 376.705 55.6907C380.321 53.0347 385.185 51.7067 391.298 51.7067C395.904 51.7067 399.951 52.4587 403.441 53.9627C406.96 55.4667 409.567 57.9307 411.264 61.3547C412.19 63.1787 412.75 65.0507 412.944 66.9707C413.137 68.8587 413.23 70.9227 413.23 73.1627V104.987H403.104V93.7547L404.784 95.5787C402.447 99.3227 399.711 102.075 396.577 103.835C393.471 105.563 389.584 106.427 384.911 106.427ZM387.218 97.2107C389.841 97.2107 392.081 96.7467 393.938 95.8187C395.791 94.8907 397.264 93.7547 398.351 92.4107C399.471 91.0667 400.224 89.8027 400.607 88.6187C401.217 87.1467 401.551 85.4667 401.617 83.5787C401.711 81.6587 401.761 80.1067 401.761 78.9227L405.31 79.9787C401.824 80.5227 398.831 81.0027 396.338 81.4187C393.841 81.8347 391.698 82.2347 389.904 82.6187C388.111 82.9707 386.528 83.3707 385.151 83.8187C383.808 84.2987 382.671 84.8587 381.745 85.4987C380.818 86.1387 380.098 86.8747 379.585 87.7067C379.105 88.5387 378.865 89.5147 378.865 90.6347C378.865 91.9147 379.185 93.0507 379.825 94.0427C380.465 95.0027 381.391 95.7707 382.608 96.3467C383.858 96.9227 385.391 97.2107 387.218 97.2107ZM425.726 104.987V53.1467H435.949V65.7707L434.703 64.1387C435.343 62.4107 436.189 60.8427 437.246 59.4347C438.336 57.9947 439.629 56.8107 441.136 55.8827C442.416 55.0187 443.822 54.3467 445.359 53.8667C446.926 53.3547 448.525 53.0507 450.159 52.9547C451.789 52.8267 453.375 52.8907 454.909 53.1467V63.9467C453.375 63.4987 451.599 63.3547 449.582 63.5147C447.599 63.6747 445.806 64.2347 444.206 65.1947C442.606 66.0587 441.296 67.1627 440.269 68.5067C439.279 69.8507 438.543 71.3867 438.063 73.1147C437.583 74.8107 437.343 76.6507 437.343 78.6347V104.987H425.726ZM477.348 106.427C473.601 106.427 470.435 105.723 467.841 104.315C465.252 102.875 463.282 100.971 461.938 98.6027C460.628 96.2347 459.972 93.6267 459.972 90.7787C459.972 88.2827 460.388 86.0427 461.218 84.0587C462.052 82.0427 463.332 80.3147 465.058 78.8747C466.788 77.4027 469.028 76.2027 471.778 75.2747C473.858 74.6027 476.291 73.9947 479.074 73.4507C481.891 72.9067 484.931 72.4107 488.194 71.9627C491.491 71.4827 494.93 70.9707 498.514 70.4267L494.387 72.7787C494.417 69.1947 493.617 66.5547 491.987 64.8587C490.354 63.1627 487.601 62.3147 483.731 62.3147C481.394 62.3147 479.138 62.8587 476.961 63.9467C474.788 65.0347 473.268 66.9067 472.401 69.5627L461.842 66.2507C463.122 61.8667 465.555 58.3467 469.138 55.6907C472.755 53.0347 477.618 51.7067 483.731 51.7067C488.337 51.7067 492.387 52.4587 495.874 53.9627C499.394 55.4667 502 57.9307 503.697 61.3547C504.627 63.1787 505.187 65.0507 505.377 66.9707C505.57 68.8587 505.667 70.9227 505.667 73.1627V104.987H495.537V93.7547L497.217 95.5787C494.88 99.3227 492.147 102.075 489.011 103.835C485.907 105.563 482.018 106.427 477.348 106.427ZM479.651 97.2107C482.274 97.2107 484.514 96.7467 486.371 95.8187C488.227 94.8907 489.697 93.7547 490.787 92.4107C491.907 91.0667 492.657 89.8027 493.04 88.6187C493.65 87.1467 493.987 85.4667 494.05 83.5787C494.147 81.6587 494.194 80.1067 494.194 78.9227L497.747 79.9787C494.257 80.5227 491.267 81.0027 488.771 81.4187C486.274 81.8347 484.131 82.2347 482.338 82.6187C480.548 82.9707 478.961 83.3707 477.588 83.8187C476.241 84.2987 475.108 84.8587 474.178 85.4987C473.251 86.1387 472.531 86.8747 472.018 87.7067C471.538 88.5387 471.298 89.5147 471.298 90.6347C471.298 91.9147 471.618 93.0507 472.258 94.0427C472.898 95.0027 473.828 95.7707 475.041 96.3467C476.291 96.9227 477.828 97.2107 479.651 97.2107Z" fill="white"/>
</g>
<defs>
<clipPath id="clip0_264_641">
<rect width="505.667" height="128" fill="white"/>
</clipPath>
</defs>
</svg>
