<svg width="160" height="43" viewBox="0 0 160 43" fill="none" xmlns="http://www.w3.org/2000/svg">
<path d="M21.2529 3.25036C21.3108 3.35121 21.2342 3.47588 21.1202 3.47588C18.8131 3.47588 16.9376 5.35322 16.8936 7.68606C16.1036 7.53447 15.285 7.52308 14.4763 7.66311C14.4205 5.34092 12.5498 3.47588 10.2502 3.47588C10.1362 3.47588 10.0594 3.35111 10.1174 3.25019C11.2342 1.30623 13.3095 0 15.6851 0C18.0608 0 20.1361 1.30631 21.2529 3.25036Z" fill="white"/>
<path d="M28.086 17.6785C28.8708 17.9227 29.6102 17.2138 29.3141 16.428C27.1131 10.588 20.5988 8.19545 15.6535 8.19545C10.6986 8.19545 4.03914 10.6653 1.98151 16.4644C1.70449 17.2452 2.44201 17.9307 3.21511 17.6872L15.0663 13.9549C15.4084 13.8471 15.774 13.8465 16.1164 13.9531L28.086 17.6785Z" fill="white"/>
<path d="M1.86584 18.8028L15.0763 14.6849C15.4163 14.579 15.7793 14.5787 16.1195 14.6841L29.4129 18.8048C30.523 19.1489 31.2826 20.1998 31.2826 21.3915V33.8068C31.2312 36.8373 28.5823 39.2663 25.6347 39.2663H20.7389C20.2549 39.2663 19.863 38.864 19.863 38.3666V34.0137C19.863 32.2996 20.85 30.7483 22.3773 30.0616C24.4246 29.1412 26.8466 27.8962 27.3022 25.3979C27.4492 24.5916 26.9376 23.8138 26.1551 23.6539C24.1763 23.2496 21.9826 23.4058 20.1275 24.2585C18.0215 25.2267 17.4706 26.837 17.2667 28.9998L17.0195 31.3296C16.9439 32.0417 16.2944 32.5872 15.5978 32.5872C14.8771 32.5872 14.3367 32.0231 14.2586 31.2865L14.016 28.9998C13.8413 27.1473 13.5246 25.3478 11.6613 24.4912C9.53582 23.5141 7.39985 23.1897 5.12759 23.6539C4.34503 23.8138 3.83344 24.5916 3.98048 25.3979C4.44 27.918 6.84299 29.1345 8.90536 30.0616C10.4327 30.7483 11.4196 32.2996 11.4196 34.0137V38.3658C11.4196 38.8632 11.0279 39.2663 10.5439 39.2663H5.64792C2.7003 39.2663 0.0514789 36.8373 0 33.8068V21.3883C0 20.1981 0.75771 19.1482 1.86584 18.8028Z" fill="white"/>
<path d="M41.0832 34.4722V12.5919H50.983C53.3386 12.5919 55.1561 13.0988 56.4355 14.1126C57.7149 15.1265 58.3545 16.5128 58.3545 18.2715C58.3545 19.575 57.9687 20.6819 57.197 21.5923C56.4457 22.5027 55.41 23.1131 54.09 23.4234V22.9269C55.6334 23.1958 56.8213 23.7959 57.6539 24.7269C58.5068 25.6373 58.9333 26.827 58.9333 28.2961C58.9333 30.241 58.253 31.7618 56.8924 32.8584C55.5521 33.9343 53.694 34.4722 51.3181 34.4722H41.0832ZM45.6219 30.8721H50.7393C51.9171 30.8721 52.8208 30.6445 53.4503 30.1893C54.0799 29.7341 54.3946 29.0099 54.3946 28.0168C54.3946 27.0029 54.0799 26.2787 53.4503 25.8442C52.8208 25.389 51.9171 25.1614 50.7393 25.1614H45.6219V30.8721ZM45.6219 21.5923H50.1301C51.3688 21.5923 52.2827 21.3647 52.8716 20.9095C53.4605 20.4543 53.7549 19.7715 53.7549 18.8611C53.7549 17.9714 53.4605 17.299 52.8716 16.8438C52.2827 16.3886 51.3688 16.161 50.1301 16.161H45.6219V21.5923Z" fill="white"/>
<path d="M61.9577 34.4722V22.8958C61.9577 22.213 61.9374 21.5199 61.8968 20.8164C61.8765 20.1129 61.8257 19.4198 61.7445 18.737H66.1614L66.6792 23.3303H65.9786C66.1817 22.213 66.5066 21.2923 66.9533 20.5681C67.4204 19.8439 67.989 19.306 68.6592 18.9542C69.3496 18.6025 70.1314 18.4266 71.0046 18.4266C71.3905 18.4266 71.6951 18.4473 71.9185 18.4887C72.1419 18.5094 72.3652 18.5611 72.5886 18.6439L72.5582 22.7717C72.1317 22.5855 71.7662 22.4717 71.4616 22.4303C71.1773 22.3682 70.8117 22.3372 70.365 22.3372C69.5121 22.3372 68.8013 22.5027 68.2327 22.8337C67.6844 23.1648 67.2681 23.651 66.9838 24.2924C66.7198 24.9338 66.5878 25.7097 66.5878 26.6201V34.4722H61.9577Z" fill="white"/>
<path d="M80.3638 34.8136C79.0235 34.8136 77.8457 34.4826 76.8303 33.8205C75.8149 33.1584 75.023 32.217 74.4544 30.9962C73.8857 29.7755 73.6014 28.3064 73.6014 26.5891C73.6014 24.8925 73.8857 23.4338 74.4544 22.213C75.023 20.9923 75.8149 20.0612 76.8303 19.4198C77.8457 18.7577 79.0235 18.4266 80.3638 18.4266C81.6025 18.4266 82.7093 18.737 83.684 19.3577C84.6791 19.9577 85.3289 20.775 85.6335 21.8096H85.2985L85.664 18.737H90.0808C90.0199 19.4198 89.959 20.1129 89.8981 20.8164C89.8574 21.4992 89.8371 22.1716 89.8371 22.8337V34.4722H85.268L85.2375 31.5238H85.6031C85.2781 32.517 84.6283 33.3136 83.6536 33.9136C82.6788 34.5136 81.5822 34.8136 80.3638 34.8136ZM81.765 31.2755C82.821 31.2755 83.6739 30.8928 84.3237 30.1272C84.9735 29.3616 85.2985 28.1823 85.2985 26.5891C85.2985 24.9959 84.9735 23.8269 84.3237 23.082C83.6739 22.3372 82.821 21.9647 81.765 21.9647C80.709 21.9647 79.8561 22.3372 79.2063 23.082C78.5564 23.8269 78.2315 24.9959 78.2315 26.5891C78.2315 28.1823 78.5463 29.3616 79.1758 30.1272C79.8256 30.8928 80.6887 31.2755 81.765 31.2755Z" fill="white"/>
<path d="M99.6101 34.8136C98.2698 34.8136 97.092 34.4826 96.0766 33.8205C95.0613 33.1584 94.2693 32.217 93.7007 30.9962C93.1321 29.7755 92.8478 28.3064 92.8478 26.5891C92.8478 24.8925 93.1321 23.4338 93.7007 22.213C94.2693 20.9923 95.0613 20.0612 96.0766 19.4198C97.092 18.7577 98.2698 18.4266 99.6101 18.4266C100.849 18.4266 101.956 18.737 102.93 19.3577C103.925 19.9577 104.575 20.775 104.88 21.8096H104.545L104.91 18.737H109.327C109.266 19.4198 109.205 20.1129 109.144 20.8164C109.104 21.4992 109.083 22.1716 109.083 22.8337V34.4722H104.514L104.484 31.5238H104.849C104.524 32.517 103.875 33.3136 102.9 33.9136C101.925 34.5136 100.829 34.8136 99.6101 34.8136ZM101.011 31.2755C102.067 31.2755 102.92 30.8928 103.57 30.1272C104.22 29.3616 104.545 28.1823 104.545 26.5891C104.545 24.9959 104.22 23.8269 103.57 23.082C102.92 22.3372 102.067 21.9647 101.011 21.9647C99.9553 21.9647 99.1024 22.3372 98.4526 23.082C97.8028 23.8269 97.4778 24.9959 97.4778 26.5891C97.4778 28.1823 97.7926 29.3616 98.4221 30.1272C99.072 30.8928 99.935 31.2755 101.011 31.2755Z" fill="white"/>
<path d="M117.185 34.4722L110.514 18.737H115.357L119.774 30.1582H118.769L123.338 18.737H127.876L121.145 34.4722H117.185Z" fill="white"/>
<path d="M136.438 34.8136C134.793 34.8136 133.361 34.4826 132.143 33.8205C130.945 33.1377 130.011 32.1859 129.34 30.9652C128.691 29.7444 128.366 28.2857 128.366 26.5891C128.366 24.9132 128.691 23.4648 129.34 22.2441C130.011 21.0233 130.945 20.0819 132.143 19.4198C133.361 18.7577 134.793 18.4266 136.438 18.4266C138.083 18.4266 139.514 18.7577 140.733 19.4198C141.951 20.0819 142.885 21.0233 143.535 22.2441C144.205 23.4648 144.541 24.9132 144.541 26.5891C144.541 28.2857 144.205 29.7444 143.535 30.9652C142.885 32.1859 141.951 33.1377 140.733 33.8205C139.514 34.4826 138.083 34.8136 136.438 34.8136ZM136.438 31.2755C137.494 31.2755 138.326 30.8928 138.936 30.1272C139.565 29.3616 139.88 28.1823 139.88 26.5891C139.88 24.9959 139.565 23.8269 138.936 23.082C138.326 22.3372 137.494 21.9647 136.438 21.9647C135.382 21.9647 134.539 22.3372 133.91 23.082C133.3 23.8269 132.996 24.9959 132.996 26.5891C132.996 28.1823 133.3 29.3616 133.91 30.1272C134.539 30.8928 135.382 31.2755 136.438 31.2755Z" fill="white"/>
<path d="M153.207 34.8136C151.826 34.8136 150.567 34.6585 149.43 34.3481C148.293 34.0377 147.328 33.6032 146.536 33.0446L147.724 29.941C148.516 30.4376 149.389 30.8307 150.344 31.1204C151.319 31.41 152.283 31.5549 153.238 31.5549C154.131 31.5549 154.791 31.41 155.218 31.1204C155.644 30.8307 155.857 30.4376 155.857 29.941C155.857 29.5272 155.715 29.2065 155.431 28.9789C155.167 28.7513 154.75 28.5857 154.182 28.4823L151.044 27.8926C149.724 27.6236 148.719 27.1271 148.029 26.4029C147.338 25.6787 146.993 24.7373 146.993 23.5786C146.993 22.5648 147.257 21.6751 147.785 20.9095C148.333 20.1233 149.115 19.5129 150.131 19.0784C151.146 18.6439 152.334 18.4266 153.694 18.4266C154.852 18.4266 155.949 18.5715 156.984 18.8611C158.02 19.1508 158.903 19.5957 159.634 20.1957L158.385 23.2062C157.756 22.7303 157.025 22.3475 156.192 22.0578C155.38 21.7682 154.598 21.6233 153.847 21.6233C152.872 21.6233 152.171 21.7889 151.745 22.1199C151.319 22.4303 151.105 22.8337 151.105 23.3303C151.105 23.7028 151.227 24.0131 151.471 24.2614C151.735 24.5097 152.131 24.6959 152.659 24.82L155.827 25.4097C157.187 25.658 158.223 26.1236 158.934 26.8064C159.645 27.4891 160 28.4306 160 29.6306C160 30.7272 159.716 31.6583 159.147 32.4239C158.578 33.1894 157.776 33.7791 156.741 34.1929C155.725 34.6067 154.547 34.8136 153.207 34.8136Z" fill="white"/>
</svg>
